<svg width="3572" height="1929" xmlns="http://www.w3.org/2000/svg" xmlns:xlink="http://www.w3.org/1999/xlink" xml:space="preserve" overflow="hidden"><defs><clipPath id="clip0"><rect x="392" y="239" width="3572" height="1929"/></clipPath></defs><g clip-path="url(#clip0)" transform="translate(-392 -239)"><rect x="392" y="239" width="3535" height="1929" fill="#FFFFFF"/><path d="M1049 878.54C1049 864.435 1060.43 853 1074.54 853L3757.46 853C3771.57 853 3783 864.435 3783 878.54L3783 2005.46C3783 2019.57 3771.57 2031 3757.46 2031L1074.54 2031C1060.43 2031 1049 2019.57 1049 2005.46Z" fill="#F2F2F2" fill-rule="evenodd"/><path d="M1058 334.774C1058 325.51 1065.51 318 1074.77 318L3775.23 318C3784.49 318 3792 325.51 3792 334.774L3792 802.227C3792 811.49 3784.49 819 3775.23 819L1074.77 819C1065.51 819 1058 811.49 1058 802.227Z" fill="#F2F2F2" fill-rule="evenodd"/><path d="M2343 1712.5C2343 1695.66 2356.66 1682 2373.5 1682L2663.5 1682C2680.34 1682 2694 1695.66 2694 1712.5L2694 1834.5C2694 1851.34 2680.34 1865 2663.5 1865L2373.5 1865C2356.66 1865 2343 1851.34 2343 1834.5Z" fill="#01B2D7" fill-rule="evenodd"/><text fill="#FFFFFF" font-family="Poppins SemiBold,Poppins SemiBold_MSFontService,sans-serif" font-weight="600" font-size="50" transform="matrix(1 0 0 1 2433.72 1789)">LPCMP</text><path d="M1859 1708.5C1859 1691.66 1872.66 1678 1889.5 1678L2179.5 1678C2196.34 1678 2210 1691.66 2210 1708.5L2210 1830.5C2210 1847.34 2196.34 1861 2179.5 1861L1889.5 1861C1872.66 1861 1859 1847.34 1859 1830.5Z" fill="#01B2D7" fill-rule="evenodd"/><text fill="#FFFFFF" font-family="Poppins SemiBold,Poppins SemiBold_MSFontService,sans-serif" font-weight="600" font-size="50" transform="matrix(1 0 0 1 1951.87 1786)">LPADC</text><path d="M6.875-1.27315e-05 6.8753 160.507-6.8747 160.507-6.875 1.27315e-05ZM20.6253 153.632 0.000360892 194.882-20.6247 153.632Z" transform="matrix(1 0 0 -1 2518 2059.88)"/><text font-family="Poppins,Poppins_MSFontService,sans-serif" font-weight="400" font-size="48" transform="matrix(1 0 0 1 2354.24 2107)">Current probe</text><path d="M2154 1503.83C2154 1491.22 2164.22 1481 2176.83 1481L2403.17 1481C2415.78 1481 2426 1491.22 2426 1503.83L2426 1595.17C2426 1607.78 2415.78 1618 2403.17 1618L2176.83 1618C2164.22 1618 2154 1607.78 2154 1595.17Z" fill="#01B2D7" fill-rule="evenodd"/><text fill="#FFFFFF" font-family="Poppins SemiBold,Poppins SemiBold_MSFontService,sans-serif" font-weight="600" font-size="50" transform="matrix(1 0 0 1 2228.99 1565)">VREF</text><path d="M6.875-1.19358e-05 6.8753 173.499-6.8747 173.499-6.875 1.19358e-05ZM20.6253 166.624 0.000360892 207.874-20.6247 166.624Z" transform="matrix(1 0 0 -1 2034 2068.87)"/><text font-family="Poppins,Poppins_MSFontService,sans-serif" font-weight="400" font-size="48" transform="matrix(1 0 0 1 1894.19 2111)">Voltage probe</text><path d="M2989 1712.5C2989 1695.66 3002.66 1682 3019.5 1682L3354.5 1682C3371.34 1682 3385 1695.66 3385 1712.5L3385 1834.5C3385 1851.34 3371.34 1865 3354.5 1865L3019.5 1865C3002.66 1865 2989 1851.34 2989 1834.5Z" fill="#01B2D7" fill-rule="evenodd"/><text fill="#FFFFFF" font-family="Poppins SemiBold,Poppins SemiBold_MSFontService,sans-serif" font-weight="600" font-size="50" transform="matrix(1 0 0 1 3134.64 1789)">TPM</text><path d="M34.375-6.87494 221.009-6.87464 221.009 6.87536 34.375 6.87506ZM41.25 20.6251 0 0 41.25-20.6249Z" transform="matrix(-6.12323e-17 -1 -1 6.12323e-17 3326 2086.01)"/><path d="M34.375-6.87494 221.009-6.87464 221.009 6.87536 34.375 6.87506ZM41.25 20.6251 0 0 41.25-20.6249Z" transform="matrix(-6.12323e-17 -1 -1 6.12323e-17 3271 2086.01)"/><path d="M34.375-6.87494 221.009-6.87464 221.009 6.87536 34.375 6.87506ZM41.25 20.6251 0 0 41.25-20.6249Z" transform="matrix(-6.12323e-17 -1 -1 6.12323e-17 3215 2086.01)"/><path d="M34.375-6.87494 221.009-6.87464 221.009 6.87536 34.375 6.87506ZM41.25 20.6251 0 0 41.25-20.6249Z" transform="matrix(-6.12323e-17 -1 -1 6.12323e-17 3160 2086.01)"/><path d="M34.375-6.87494 221.009-6.87464 221.009 6.87536 34.375 6.87506ZM41.25 20.6251 0 0 41.25-20.6249Z" transform="matrix(-6.12323e-17 -1 -1 6.12323e-17 3104 2086.01)"/><path d="M34.375-6.87494 221.009-6.87464 221.009 6.87536 34.375 6.87506ZM41.25 20.6251 0 0 41.25-20.6249Z" transform="matrix(-6.12323e-17 -1 -1 6.12323e-17 3048 2086.01)"/><path d="M2694 1767.13 2955.11 1767.21 2955.1 1780.96 2694 1780.88ZM2948.24 1753.46 2989.48 1774.09 2948.22 1794.71Z" fill="#69CA00"/><text fill="#69CA00" font-family="Poppins,Poppins_MSFontService,sans-serif" font-weight="400" font-size="37" transform="matrix(1 0 0 1 2715.36 1833)">DMA transfer </text><text fill="#69CA00" font-family="Poppins,Poppins_MSFontService,sans-serif" font-weight="400" font-size="37" transform="matrix(1 0 0 1 2715.36 1877)">to stop PWM </text><text fill="#69CA00" font-family="Poppins,Poppins_MSFontService,sans-serif" font-weight="400" font-size="37" transform="matrix(1 0 0 1 2715.36 1921)">output</text><path d="M2535 1467.06C2535 1452.11 2547.11 1440 2562.06 1440L2882.94 1440C2897.89 1440 2910 1452.11 2910 1467.06L2910 1551.94C2910 1566.89 2897.89 1579 2882.94 1579L2562.06 1579C2547.11 1579 2535 1566.89 2535 1551.94Z" fill="#01B2D7" fill-rule="evenodd"/><text fill="#FFFFFF" font-family="Poppins SemiBold,Poppins SemiBold_MSFontService,sans-serif" font-weight="600" font-size="50" transform="matrix(1 0 0 1 2639.09 1525)">TSTMR</text><path d="M1375 1715.2C1375 1694.66 1391.66 1678 1412.2 1678L1688.8 1678C1709.34 1678 1726 1694.66 1726 1715.2L1726 1822.8C1726 1843.34 1709.34 1860 1688.8 1860L1412.2 1860C1391.66 1860 1375 1843.34 1375 1822.8Z" fill="#01B2D7" fill-rule="evenodd"/><text fill="#FFFFFF" font-family="Poppins SemiBold,Poppins SemiBold_MSFontService,sans-serif" font-weight="600" font-size="50" transform="matrix(1 0 0 1 1502.44 1785)">LPIT</text><path d="M1726.03 1762.12 1823.98 1762.57 1823.92 1776.32 1725.97 1775.87ZM1817.17 1748.78 1858.33 1769.59 1816.98 1790.03Z" fill="#69CA00"/><text fill="#69CA00" font-family="Poppins,Poppins_MSFontService,sans-serif" font-weight="400" font-size="37" transform="matrix(1 0 0 1 1530.58 1907)">Trgmux</text><text fill="#69CA00" font-family="Poppins,Poppins_MSFontService,sans-serif" font-weight="400" font-size="37" transform="matrix(1 0 0 1 1677.82 1907)">: LPIT output is </text><text fill="#69CA00" font-family="Poppins,Poppins_MSFontService,sans-serif" font-weight="400" font-size="37" transform="matrix(1 0 0 1 1530.58 1951)">set as trigger source </text><text fill="#69CA00" font-family="Poppins,Poppins_MSFontService,sans-serif" font-weight="400" font-size="37" transform="matrix(1 0 0 1 1530.58 1995)">for ADC measurement</text><path d="M3421 1713.33C3421 1696.58 3434.58 1683 3451.33 1683L3741.67 1683C3758.42 1683 3772 1696.58 3772 1713.33L3772 1834.67C3772 1851.42 3758.42 1865 3741.67 1865L3451.33 1865C3434.58 1865 3421 1851.42 3421 1834.67Z" fill="#01B2D7" fill-rule="evenodd"/><text fill="#FFFFFF" font-family="Poppins SemiBold,Poppins SemiBold_MSFontService,sans-serif" font-weight="600" font-size="50" transform="matrix(1 0 0 1 3534.74 1790)">GPIO</text><path d="M1.12264e-05-6.875 186.634-6.8747 186.634 6.8753-1.12264e-05 6.875ZM179.759-20.6247 221.009 0.000360892 179.759 20.6253Z" transform="matrix(-6.12323e-17 -1 -1 6.12323e-17 3671 2076.01)"/><path d="M1.12264e-05-6.875 186.634-6.8747 186.634 6.8753-1.12264e-05 6.875ZM179.759-20.6247 221.009 0.000360892 179.759 20.6253Z" transform="matrix(-6.12323e-17 -1 -1 6.12323e-17 3610 2076.01)"/><path d="M1.12264e-05-6.875 186.634-6.8747 186.634 6.8753-1.12264e-05 6.875ZM179.759-20.6247 221.009 0.000360892 179.759 20.6253Z" transform="matrix(-6.12323e-17 -1 -1 6.12323e-17 3549 2076.01)"/><text font-family="Poppins,Poppins_MSFontService,sans-serif" font-weight="400" font-size="48" transform="matrix(1 0 0 1 3470.13 2125)">Hall sensors</text><text fill="#7F7F7F" font-family="Poppins,Poppins_MSFontService,sans-serif" font-style="italic" font-weight="400" font-size="41" transform="matrix(1 0 0 1 1081.99 2004)">bldc_driver</text><text fill="#7F7F7F" font-family="Poppins,Poppins_MSFontService,sans-serif" font-style="italic" font-weight="400" font-size="41" transform="matrix(1 0 0 1 1082.47 359)">main_app</text><path d="M1670 1006.36C1670 990.144 1683.14 977 1699.36 977L2402.64 977C2418.86 977 2432 990.144 2432 1006.36L2432 1185.64C2432 1201.86 2418.86 1215 2402.64 1215L1699.36 1215C1683.14 1215 1670 1201.86 1670 1185.64Z" fill="#F8B500" fill-rule="evenodd"/><text fill="#FFFFFF" font-family="Poppins SemiBold,Poppins SemiBold_MSFontService,sans-serif" font-weight="600" font-size="50" transform="matrix(1 0 0 1 1760.56 1055)">BLDC_ControlLoopRun</text><text fill="#FF0000" font-family="Poppins,Poppins_MSFontService,sans-serif" font-style="italic" font-weight="700" font-size="32" transform="matrix(1 0 0 1 2291.05 1898)">Continuous </text><text fill="#FF0000" font-family="Poppins,Poppins_MSFontService,sans-serif" font-style="italic" font-weight="700" font-size="32" transform="matrix(1 0 0 1 2306.25 1936)">reading &amp; </text><text fill="#FF0000" font-family="Poppins,Poppins_MSFontService,sans-serif" font-style="italic" font-weight="700" font-size="32" transform="matrix(1 0 0 1 2287.34 1975)">comparison</text><path d="M2276.06 1766.13 2308.06 1766.41 2307.94 1780.16 2275.94 1779.87ZM2301.31 1752.6 2342.38 1773.59 2300.94 1793.85Z" fill="#69CA00"/><path d="M3203 679.844C3203 663.362 3216.36 650 3232.84 650L3686.16 650C3702.64 650 3716 663.362 3716 679.844L3716 766.156C3716 782.639 3702.64 796 3686.16 796L3232.84 796C3216.36 796 3203 782.639 3203 766.156Z" fill="#D9D9D9" fill-rule="evenodd"/><text fill="#FFFFFF" font-family="Poppins SemiBold,Poppins SemiBold_MSFontService,sans-serif" font-weight="600" font-size="50" transform="matrix(1 0 0 1 3310.11 739)">IRQ handler</text><path d="M2282.88 1614 2282.88 1779.88 2243.38 1779.88 2243.38 1766.13 2276 1766.13 2269.12 1773 2269.12 1614ZM2250.25 1793.63 2209 1773 2250.25 1752.38Z" fill="#69CA00"/><path d="M1428.24 1856.32 1428.93 1860.74 1429.18 1865.48 1428.96 1870.15 1428.26 1874.9 1425.68 1883.48 1421.45 1891.5 1415.77 1898.57 1408.92 1904.36 1404.85 1906.89 1400.65 1908.95 1396.2 1910.6 1391.53 1911.82 1386.77 1912.56 1382.03 1912.81 1377.35 1912.59 1372.61 1911.89 1364.02 1909.3 1356.01 1905.07 1348.94 1899.4 1343.15 1892.55 1340.62 1888.48 1338.56 1884.28 1336.9 1879.83 1335.69 1875.16 1334.95 1870.39 1334.7 1865.65 1334.92 1860.98 1335.61 1856.24 1338.2 1847.65 1342.43 1839.63 1348.98 1831.47 1358.84 1828.31 1363.04 1841.4 1355.15 1843.93 1358.41 1841.69 1353.57 1847.73 1354.29 1846.63 1350.67 1853.48 1351.18 1852.26 1348.93 1859.72 1349.14 1858.74 1348.57 1862.65 1348.63 1861.97 1348.45 1865.96 1348.44 1865.27 1348.66 1869.32 1348.59 1868.63 1349.22 1872.71 1349.08 1872.03 1350.12 1876.03 1349.91 1875.36 1351.33 1879.16 1351.05 1878.53 1352.81 1882.11 1352.48 1881.52 1354.56 1884.87 1353.97 1884.06 1359.01 1890.02 1358.06 1889.09 1364.1 1893.94 1363 1893.22 1369.85 1896.83 1368.63 1896.33 1376.1 1898.58 1375.11 1898.36 1379.02 1898.94 1378.34 1898.87 1382.33 1899.06 1381.64 1899.06 1385.69 1898.85 1385 1898.92 1389.08 1898.28 1388.4 1898.43 1392.4 1897.38 1391.74 1897.59 1395.54 1896.18 1394.9 1896.45 1398.49 1894.69 1397.89 1895.02 1401.25 1892.94 1400.43 1893.53 1406.39 1888.5 1405.47 1889.44 1410.31 1883.41 1409.59 1884.5 1413.2 1877.65 1412.7 1878.88 1414.95 1871.41 1414.74 1872.39 1415.31 1868.49 1415.24 1869.16 1415.43 1865.18 1415.44 1865.86 1415.22 1861.82 1415.29 1862.51 1414.66 1858.43ZM1349.65 1816.28 1394.45 1827.2 1358.83 1856.49Z"/><path d="M22.6247 6.875 8.8747 6.875 8.8747-6.875 22.6247-6.875ZM6.875 4.8753 6.875 18.6253-6.875 18.6253-6.875 4.8753ZM6.875 32.3753 6.875 46.1253-6.875 46.1253-6.875 32.3753ZM6.875 59.8753 6.875 73.6253-6.875 73.6253-6.875 59.8753ZM6.875 87.3753 6.875 101.125-6.875 101.125-6.875 87.3753ZM6.875 114.875 6.875 128.625-6.875 128.625-6.875 114.875ZM6.875 142.375 6.875 156.125-6.875 156.125-6.875 142.375ZM6.875 169.875 6.875 183.625-6.875 183.625-6.875 169.875ZM6.875 197.375 6.875 211.125-6.875 211.125-6.875 197.375ZM6.875 224.875 6.875 238.625-6.875 238.625-6.875 224.875ZM6.875 252.375 6.875 266.125-6.875 266.125-6.875 252.375ZM6.875 279.875 6.875 293.625-6.875 293.625-6.875 279.875ZM6.875 307.375 6.875 321.125-6.875 321.125-6.875 307.375ZM6.875 334.875 6.875 348.625-6.875 348.625-6.875 334.875ZM6.875 362.375 6.875 376.125-6.875 376.125-6.875 362.375ZM6.875 389.875 6.875 403.625-6.875 403.625-6.875 389.875ZM6.875 417.375 6.875 431.125-6.875 431.125-6.875 417.375ZM6.875 444.875 6.875 458.625-6.875 458.625-6.875 444.875ZM6.875 472.375 6.875 486.125-6.875 486.125-6.875 472.375ZM6.875 499.875 6.875 513.625-6.875 513.625-6.875 499.875ZM6.875 527.375 6.875 541.125-6.875 541.125-6.875 527.375ZM6.875 554.875 6.875 568.625-6.875 568.625-6.875 554.875ZM6.875 582.375 6.875 596.125-6.875 596.125-6.875 582.375ZM6.875 609.875 6.875 623.625-6.875 623.625-6.875 609.875ZM6.875 637.375 6.875 651.125-6.875 651.125-6.875 637.375ZM6.875 664.875 6.875 678.625-6.875 678.625-6.875 664.875ZM15.7497-20.625 56.9997 0 15.7497 20.625Z" transform="matrix(1 0 0 -1 1281 1872)"/><path d="M2970 1366C2970 1353.85 2979.85 1344 2992 1344L3414 1344C3426.15 1344 3436 1353.85 3436 1366L3436 1454C3436 1466.15 3426.15 1476 3414 1476L2992 1476C2979.85 1476 2970 1466.15 2970 1454Z" fill="#D9D9D9" fill-rule="evenodd"/><text fill="#FFFFFF" font-family="Poppins SemiBold,Poppins SemiBold_MSFontService,sans-serif" font-weight="600" font-size="50" transform="matrix(1 0 0 1 3021.53 1426)">Commutation</text><path d="M6.87506 34.375 6.87536 203.626-6.87464 203.626-6.87494 34.375ZM-20.6249 41.25 0 0 20.6251 41.25Z" transform="matrix(1 0 0 -1 3191 1682.63)"/><path d="M2535 1193.5C2535 1177.76 2547.76 1165 2563.5 1165L2883.5 1165C2899.24 1165 2912 1177.76 2912 1193.5L2912 1307.5C2912 1323.24 2899.24 1336 2883.5 1336L2563.5 1336C2547.76 1336 2535 1323.24 2535 1307.5Z" fill="#69CA00" fill-rule="evenodd"/><text fill="#FFFFFF" font-family="Poppins SemiBold,Poppins SemiBold_MSFontService,sans-serif" font-weight="600" font-size="46" transform="matrix(1 0 0 1 2589.57 1238)">Timestamp </text><text fill="#FFFFFF" font-family="Poppins SemiBold,Poppins SemiBold_MSFontService,sans-serif" font-weight="600" font-size="46" transform="matrix(1 0 0 1 2609.63 1293)">&amp; counter</text><path d="M7.26955 34.2937 8.06513 103.525-5.68396 103.683-6.47955 34.4517ZM-20.1496 41.4843 0 0 21.0976 41.0103ZM21.8142 103.367C21.9451 114.757 12.8177 124.097 1.42758 124.228-9.96254 124.359-19.3022 115.231-19.4331 103.841-19.5639 92.4511-10.4365 83.1115 0.953584 82.9806 12.3437 82.8497 21.6833 91.9771 21.8142 103.367Z" transform="matrix(-1 0 0 1 2723.19 1336)"/><path d="M3246 428.285C3246 400.513 3268.51 378 3296.28 378L3544.72 378C3572.49 378 3595 400.513 3595 428.285L3595 573.715C3595 601.487 3572.49 624 3544.72 624L3296.28 624C3268.51 624 3246 601.487 3246 573.715Z" fill="#01B2D7" fill-rule="evenodd"/><text fill="#FFFFFF" font-family="Poppins SemiBold,Poppins SemiBold_MSFontService,sans-serif" font-weight="600" font-size="50" transform="matrix(1 0 0 1 3327.47 517)">LPUART</text><path d="M9.83711e-06-6.875 217.847-6.87469 217.847 6.87531-9.83711e-06 6.875ZM210.972-20.6247 252.222 0.000360892 210.972 20.6253Z" transform="matrix(-1 0 0 1 3844.22 465)"/><text font-family="Poppins,Poppins_MSFontService,sans-serif" font-weight="400" font-size="48" transform="matrix(1 0 0 1 3854.74 571)">Tx</text><path d="M34.375-6.87495 252.222-6.87464 252.222 6.87536 34.375 6.87505ZM41.25 20.6251 0 0 41.25-20.6249Z" transform="matrix(-1 0 0 1 3844.22 550)"/><text font-family="Poppins,Poppins_MSFontService,sans-serif" font-weight="400" font-size="48" transform="matrix(1 0 0 1 3856.09 479)">Rx</text><path d="M2533 1055.17C2533 1044.58 2541.58 1036 2552.17 1036L2888.83 1036C2899.42 1036 2908 1044.58 2908 1055.17L2908 1131.83C2908 1142.42 2899.42 1151 2888.83 1151L2552.17 1151C2541.58 1151 2533 1142.42 2533 1131.83Z" fill="#69CA00" fill-rule="evenodd"/><text fill="#FFFFFF" font-family="Poppins SemiBold,Poppins SemiBold_MSFontService,sans-serif" font-weight="600" font-size="46" transform="matrix(1 0 0 1 2595.62 1108)">Duty Cycle</text><path d="M2504.16 1099.88 2431 1099.88 2431 1086.13 2504.16 1086.13ZM2497.29 1072.38 2538.54 1093 2497.29 1113.63Z"/><path d="M1670 438.484C1670 405.632 1696.63 379 1729.48 379L2371.52 379C2404.37 379 2431 405.632 2431 438.484L2431 610.516C2431 643.368 2404.37 670 2371.52 670L1729.48 670C1696.63 670 1670 643.368 1670 610.516Z" fill="#F8B500" fill-rule="evenodd"/><text fill="#FFFFFF" font-family="Poppins SemiBold,Poppins SemiBold_MSFontService,sans-serif" font-weight="600" font-size="64" transform="matrix(1 0 0 1 1892 545)">Main </text><text fill="#FFFFFF" font-family="Poppins SemiBold,Poppins SemiBold_MSFontService,sans-serif" font-weight="600" font-size="64" transform="matrix(1 0 0 1 2069.03 545)">task</text><path d="M2044.46 977.262 2044.45 963.512 2058.2 963.497 2058.21 977.247ZM2044.43 949.762 2044.42 936.012 2058.17 935.997 2058.18 949.747ZM2044.4 922.262 2044.39 908.512 2058.14 908.497 2058.15 922.247ZM2044.37 894.762 2044.36 881.012 2058.11 880.997 2058.12 894.747ZM2044.34 867.262 2044.33 853.512 2058.08 853.497 2058.09 867.247ZM2044.31 839.762 2044.3 826.012 2058.05 825.997 2058.06 839.747ZM2044.28 812.262 2044.27 798.512 2058.02 798.497 2058.03 812.247ZM2044.25 784.762 2044.24 771.012 2057.99 770.997 2058 784.747ZM2044.22 757.262 2044.21 743.512 2057.96 743.497 2057.97 757.247ZM2044.19 729.762 2044.18 716.012 2057.93 715.997 2057.94 729.747ZM2030.42 711.272 2051 670 2071.67 711.227Z" fill="#FE7300"/><path d="M3.02599e-06-6.875 785.565-6.87465 785.565 6.87535-3.02599e-06 6.875ZM778.691-20.6247 819.941 0.000360892 778.691 20.6253Z" transform="matrix(-1 0 0 1 3245.94 475)"/><path d="M34.3753-6.87499 819.866-6.87464 819.866 6.87536 34.3753 6.87501ZM41.25 20.625 0 0 41.25-20.625Z" transform="matrix(-1 0 0 1 3250.87 549)"/><text fill="#69CA00" font-family="Poppins,Poppins_MSFontService,sans-serif" font-weight="400" font-size="37" transform="matrix(1 0 0 1 2293.93 1665)">Use of VREF</text><text font-family="Poppins,Poppins_MSFontService,sans-serif" font-weight="400" font-size="48" transform="matrix(1 0 0 1 3029.8 2125)">PWM outputs</text><path d="M2531 892.666C2531 881.805 2539.8 873 2550.67 873L2885.33 873C2896.2 873 2905 881.805 2905 892.666L2905 971.334C2905 982.195 2896.2 991 2885.33 991L2550.67 991C2539.8 991 2531 982.195 2531 971.334Z" fill="#69CA00" fill-rule="evenodd"/><text fill="#FFFFFF" font-family="Poppins SemiBold,Poppins SemiBold_MSFontService,sans-serif" font-weight="600" font-size="46" transform="matrix(1 0 0 1 2598.9 947)">PID values </text><path d="M3105 985.014C3105 965.124 3121.12 949 3141.01 949L3516.99 949C3536.88 949 3553 965.124 3553 985.014L3553 1097.99C3553 1117.88 3536.88 1134 3516.99 1134L3141.01 1134C3121.12 1134 3105 1117.88 3105 1097.99Z" fill="#CC0099" fill-rule="evenodd"/><text fill="#FFFFFF" font-family="Poppins SemiBold,Poppins SemiBold_MSFontService,sans-serif" font-weight="600" font-size="50" transform="matrix(1 0 0 1 3160.09 1027)">BLDC_HallIrq</text><text fill="#FFFFFF" font-family="Poppins SemiBold,Poppins SemiBold_MSFontService,sans-serif" font-weight="600" font-size="50" transform="matrix(1 0 0 1 3227.12 1088)">Handler</text><path d="M6.87506 34.375 6.87536 217.573-6.87464 217.573-6.87494 34.375ZM-20.6249 41.25 0 0 20.6251 41.25Z" transform="matrix(1 0 0 -1 3326 1353.57)"/><path d="M6.875-5.16088e-06 6.87501 13.75-6.87499 13.75-6.875 5.16088e-06ZM6.87502 27.5 6.87503 41.25-6.87497 41.25-6.87498 27.5ZM6.87504 55 6.87505 68.75-6.87495 68.75-6.87496 55ZM6.87506 82.5 6.87507 96.25-6.87493 96.25-6.87494 82.5ZM6.87508 110 6.87509 123.75-6.87491 123.75-6.87492 110ZM6.8751 137.5 6.87511 151.25-6.87489 151.25-6.8749 137.5ZM6.87512 165 6.87513 178.75-6.87487 178.75-6.87488 165ZM6.87514 192.5 6.87515 206.25-6.87485 206.25-6.87486 192.5ZM6.87516 220 6.87518 233.75-6.87482 233.75-6.87484 220ZM6.87519 247.5 6.8752 261.25-6.8748 261.25-6.87481 247.5ZM6.87521 275 6.87522 288.75-6.87478 288.75-6.87479 275ZM6.87523 302.5 6.87524 316.25-6.87476 316.25-6.87477 302.5ZM6.87525 330 6.87526 343.75-6.87474 343.75-6.87475 330ZM6.87527 357.5 6.87528 371.25-6.87472 371.25-6.87473 357.5ZM6.87529 385 6.8753 398.75-6.8747 398.75-6.87471 385ZM6.87531 412.5 6.87532 426.25-6.87468 426.25-6.87469 412.5ZM6.87533 440 6.87533 446.383-6.87467 446.383-6.87467 440ZM20.6253 439.508 0.000360892 480.758-20.6247 439.508Z" fill="#00B0F0" transform="matrix(1 0 0 -1 2051 1695.76)"/><path d="M1111 1039.01C1111 1019.12 1127.12 1003 1147.01 1003L1448.99 1003C1468.88 1003 1485 1019.12 1485 1039.01L1485 1151.99C1485 1171.88 1468.88 1188 1448.99 1188L1147.01 1188C1127.12 1188 1111 1171.88 1111 1151.99Z" fill="#CC0099" fill-rule="evenodd"/><text fill="#FFFFFF" font-family="Poppins SemiBold,Poppins SemiBold_MSFontService,sans-serif" font-weight="600" font-size="50" transform="matrix(1 0 0 1 1164.96 1112)">Start/Stop</text><path d="M1669 519.875 1282 519.875 1288.87 513 1288.87 972.625 1275.12 972.625 1275.12 506.125 1669 506.125ZM1302.62 965.75 1282 1007 1261.37 965.75Z" fill="#CC0099"/><path d="M2755.38 1403.13 2769.13 1403.13 2769.13 1416.88 2755.38 1416.88ZM2782.88 1403.13 2796.63 1403.13 2796.63 1416.88 2782.88 1416.88ZM2810.38 1403.13 2824.13 1403.13 2824.13 1416.88 2810.38 1416.88ZM2837.88 1403.13 2851.63 1403.13 2851.63 1416.88 2837.88 1416.88ZM2865.38 1403.13 2879.13 1403.13 2879.13 1416.88 2865.38 1416.88ZM2892.88 1403.13 2906.63 1403.13 2906.63 1416.88 2892.88 1416.88ZM2920.38 1403.13 2934.13 1403.13 2934.13 1416.88 2920.38 1416.88ZM2947.88 1403.13 2961.63 1403.13 2961.63 1416.88 2947.88 1416.88ZM2762.25 1430.63 2721 1410 2762.25 1389.38Z"/><path d="M3332.88 796 3332.88 917.531 3319.13 917.531 3319.13 796ZM3346.63 910.656 3326 951.906 3305.38 910.656Z" fill="#CC0099"/><path d="M6.875-2.76771e-06 6.87501 13.75-6.87499 13.75-6.875 2.76771e-06ZM6.87501 27.5 6.87502 41.25-6.87498 41.25-6.87499 27.5ZM6.87502 55 6.87503 68.75-6.87497 68.75-6.87498 55ZM6.87503 82.5 6.87504 96.25-6.87496 96.25-6.87497 82.5ZM6.87504 110 6.87505 123.75-6.87495 123.75-6.87496 110ZM6.87506 137.5 6.87506 151.25-6.87494 151.25-6.87494 137.5ZM6.87507 165 6.87507 178.75-6.87493 178.75-6.87493 165ZM6.87508 192.5 6.87508 206.25-6.87492 206.25-6.87492 192.5ZM6.87509 220 6.87509 233.75-6.87491 233.75-6.87491 220ZM6.8751 247.5 6.8751 261.25-6.8749 261.25-6.8749 247.5ZM6.87511 275 6.87512 288.75-6.87488 288.75-6.87489 275ZM6.87512 302.5 6.87513 316.25-6.87487 316.25-6.87488 302.5ZM6.87513 330 6.87514 343.75-6.87486 343.75-6.87487 330ZM6.87514 357.5 6.87515 371.25-6.87485 371.25-6.87486 357.5ZM6.87515 385 6.87516 398.75-6.87484 398.75-6.87485 385ZM6.87517 412.5 6.87517 426.25-6.87483 426.25-6.87483 412.5ZM6.87518 440 6.87518 453.75-6.87482 453.75-6.87482 440ZM6.87519 467.5 6.87519 481.25-6.87481 481.25-6.87481 467.5ZM6.8752 495 6.87521 508.75-6.87479 508.75-6.8748 495ZM6.87521 522.5 6.87522 536.25-6.87478 536.25-6.87479 522.5ZM6.87522 550 6.87523 563.75-6.87477 563.75-6.87478 550ZM6.87523 577.5 6.87524 591.25-6.87476 591.25-6.87477 577.5ZM6.87524 605 6.87525 618.75-6.87475 618.75-6.87476 605ZM6.87525 632.5 6.87526 646.25-6.87474 646.25-6.87475 632.5ZM6.87527 660 6.87527 673.75-6.87473 673.75-6.87473 660ZM6.87528 687.5 6.87528 701.25-6.87472 701.25-6.87472 687.5ZM6.87529 715 6.87529 728.75-6.87471 728.75-6.87471 715ZM6.8753 742.5 6.8753 756.25-6.8747 756.25-6.8747 742.5ZM6.87531 770 6.87532 783.75-6.87468 783.75-6.87469 770ZM6.87532 797.5 6.87533 811.25-6.87467 811.25-6.87468 797.5ZM6.87533 825 6.87534 838.75-6.87466 838.75-6.87467 825ZM6.87534 852.5 6.87535 862.081-6.87465 862.081-6.87466 852.5ZM20.6253 855.207 0.000360892 896.457-20.6247 855.207Z" fill="#00B0F0" transform="matrix(1 0 0 -1 3610 1686.46)"/><path d="M34.375-6.87493 185.051-6.87464 185.051 6.87536 34.375 6.87507ZM41.25 20.6251 0 0 41.25-20.6249Z" transform="matrix(-1 0 0 1 1670.05 1096)"/><path d="M153 6.875 0 6.875 6.875 0 6.875 217.625-6.875 217.625-6.875-6.875 153-6.875ZM153-20.625C164.391-20.625 173.625-11.3909 173.625 0 173.625 11.3909 164.391 20.625 153 20.625 141.609 20.625 132.375 11.3909 132.375 0 132.375-11.3909 141.609-20.625 153-20.625ZM20.625 210.75 0 252-20.625 210.75Z" transform="matrix(-1 1.22465e-16 1.22465e-16 1 3060 1099)"/><path d="M405 669.833C405 661.641 411.641 655 419.834 655L526.167 655C534.359 655 541 661.641 541 669.833L541 729.166C541 737.359 534.359 744 526.167 744L419.834 744C411.641 744 405 737.359 405 729.166Z" fill="#01B2D7" fill-rule="evenodd"/><text font-family="Poppins,Poppins_MSFontService,sans-serif" font-weight="400" font-size="46" transform="matrix(1 0 0 1 561.544 715)">Hardware IPs</text><path d="M405 793.833C405 785.641 411.641 779 419.833 779L526.167 779C534.359 779 541 785.641 541 793.833L541 853.167C541 861.359 534.359 868 526.167 868L419.833 868C411.641 868 405 861.359 405 853.167Z" fill="#69CA00" fill-rule="evenodd"/><text font-family="Poppins,Poppins_MSFontService,sans-serif" font-weight="400" font-size="46" transform="matrix(1 0 0 1 558.011 834)">Data storage</text><path d="M405 914.833C405 906.641 411.641 900 419.833 900L526.167 900C534.359 900 541 906.641 541 914.833L541 974.167C541 982.359 534.359 989 526.167 989L419.833 989C411.641 989 405 982.359 405 974.167Z" fill="#F8B500" fill-rule="evenodd"/><text font-family="Poppins,Poppins_MSFontService,sans-serif" font-weight="400" font-size="46" transform="matrix(1 0 0 1 558.011 963)">State machine</text><path d="M34.375-6.87489 110.297-6.87464 110.297 6.87536 34.375 6.87511ZM41.2499 20.6251 0 0 41.2501-20.6249Z" transform="matrix(-1 0 0 1 528.297 1053)"/><text font-family="Poppins,Poppins_MSFontService,sans-serif" font-weight="400" font-size="46" transform="matrix(1 0 0 1 561.544 1074)">Direct action</text><path d="M34.375-6.87489 110.297-6.87464 110.297 6.87536 34.375 6.87511ZM41.2499 20.6251 0 0 41.2501-20.6249ZM110.297-20.6246C121.688-20.6246 130.922-11.3904 130.922 0.000428378 130.922 11.3913 121.687 20.6254 110.297 20.6254 98.9057 20.6253 89.6716 11.3912 89.6717 0.000293407 89.6717-11.3906 98.9059-20.6247 110.297-20.6246Z" transform="matrix(-1 0 0 1 528.297 1138)"/><text font-family="Poppins,Poppins_MSFontService,sans-serif" font-weight="400" font-size="46" transform="matrix(1 0 0 1 561.544 1159)">Read data</text><path d="M34.375-6.87489 110.297-6.87464 110.297 6.87536 34.375 6.87511ZM41.2499 20.6251 0 0 41.2501-20.6249Z" fill="#69CA00" transform="matrix(-1 0 0 1 528.297 1223)"/><text font-family="Poppins,Poppins_MSFontService,sans-serif" font-weight="400" font-size="46" transform="matrix(1 0 0 1 561.544 1244)">HW trigger/Link</text><path d="M34.375-6.87489 110.297-6.87464 110.297 6.87536 34.375 6.87511ZM41.2499 20.6251 0 0 41.2501-20.6249Z" fill="#CC0099" transform="matrix(-1 0 0 1 528.297 1304)"/><text font-family="Poppins,Poppins_MSFontService,sans-serif" font-weight="400" font-size="46" transform="matrix(1 0 0 1 561.544 1325)">API calls</text><path d="M34.375-6.87489 48.125-6.87484 48.125 6.87516 34.375 6.87511ZM61.875-6.8748 75.625-6.87475 75.625 6.87525 61.875 6.8752ZM89.375-6.87471 103.125-6.87466 103.125 6.87534 89.375 6.87529ZM41.2499 20.6251 0 0 41.2501-20.6249Z" fill="#FE7300" transform="matrix(-1 0 0 1 528.297 1382)"/><text font-family="Poppins,Poppins_MSFontService,sans-serif" font-weight="400" font-size="46" transform="matrix(1 0 0 1 561.544 1402)">Callbacks</text><path d="M34.375-6.87489 48.125-6.87484 48.125 6.87516 34.375 6.87511ZM61.875-6.8748 75.625-6.87475 75.625 6.87525 61.875 6.8752ZM89.375-6.87471 103.125-6.87466 103.125 6.87534 89.375 6.87529ZM41.2499 20.6251 0 0 41.2501-20.6249Z" fill="#00B0F0" transform="matrix(-1 0 0 1 530.297 1456)"/><text font-family="Poppins,Poppins_MSFontService,sans-serif" font-weight="400" font-size="46" transform="matrix(1 0 0 1 563.387 1477)">IR</text><text font-family="Poppins,Poppins_MSFontService,sans-serif" font-weight="400" font-size="46" transform="matrix(1 0 0 1 602.918 1477)">Q</text><text font-family="Poppins,Poppins_MSFontService,sans-serif" font-weight="400" font-size="46" transform="matrix(1 0 0 1 1831.25 1162)">Init</text><text font-family="Poppins,Poppins_MSFontService,sans-serif" font-weight="400" font-size="46" transform="matrix(1 0 0 1 1900 1162)">-</text><text font-family="Poppins,Poppins_MSFontService,sans-serif" font-weight="400" font-size="46" transform="matrix(1 0 0 1 1925.21 1162)">&gt;Run</text><text font-family="Poppins,Poppins_MSFontService,sans-serif" font-weight="400" font-size="46" transform="matrix(1 0 0 1 2036.36 1162)">-</text><text font-family="Poppins,Poppins_MSFontService,sans-serif" font-weight="400" font-size="46" transform="matrix(1 0 0 1 2061.56 1162)">&gt;Stop/Fault</text><path d="M139 6.875 0 6.875 6.875 0 6.875 37.6252-6.875 37.6252-6.875-6.875 139-6.875ZM139-20.625C150.391-20.625 159.625-11.3909 159.625 0 159.625 11.3909 150.391 20.625 139 20.625 127.609 20.625 118.375 11.3909 118.375 0 118.375-11.3909 127.609-20.625 139-20.625ZM20.625 30.7502 0 72.0002-20.625 30.7502Z" transform="matrix(1 0 0 -1 2385 1269)"/><path d="M2521 925.875 2382 925.875 2388.87 919 2388.87 954.625 2375.12 954.625 2375.12 912.125 2521 912.125ZM2521 898.375C2532.39 898.375 2541.62 907.609 2541.62 919 2541.62 930.391 2532.39 939.625 2521 939.625 2509.61 939.625 2500.38 930.391 2500.38 919 2500.38 907.609 2509.61 898.375 2521 898.375ZM2402.62 947.75 2382 989 2361.37 947.75Z"/><path d="M34.375-6.87489 48.125-6.87484 48.125 6.87516 34.375 6.87511ZM61.875-6.8748 75.625-6.87475 75.625 6.87525 61.875 6.8752ZM89.375-6.87471 103.125-6.87466 103.125 6.87534 89.375 6.87529ZM41.2499 20.6251 0 0 41.2501-20.6249Z" transform="matrix(-1 0 0 1 532.297 1526)"/><text font-family="Poppins,Poppins_MSFontService,sans-serif" font-weight="400" font-size="46" transform="matrix(1 0 0 1 565.23 1547)">Triggered operation</text><path d="M3509.88 1168.38 3509.88 1678.67 3496.13 1678.67 3496.13 1168.38ZM3482.38 1175.25 3503 1134 3523.63 1175.25ZM3523.63 1678.67C3523.63 1690.06 3514.39 1699.29 3503 1699.29 3491.61 1699.29 3482.38 1690.06 3482.38 1678.67 3482.38 1667.28 3491.61 1658.04 3503 1658.04 3514.39 1658.04 3523.63 1667.28 3523.63 1678.67Z"/><text font-family="Poppins,Poppins_MSFontService,sans-serif" font-weight="400" font-size="37" transform="matrix(-1.83697e-16 -1 1 -1.83697e-16 3491.03 1492)">Read IOs state</text><path d="M2801.12 1766 2801.12 1752.25 2814.88 1752.25 2814.88 1766ZM2801.12 1738.5 2801.12 1724.75 2814.88 1724.75 2814.88 1738.5ZM2801.12 1711 2801.12 1697.25 2814.88 1697.25 2814.88 1711ZM2801.12 1683.5 2801.12 1669.75 2814.88 1669.75 2814.88 1683.5ZM2801.12 1656 2801.12 1642.25 2814.88 1642.25 2814.88 1656ZM2801.12 1628.5 2801.12 1623 2801.12 1614.75 2814.88 1614.75 2814.88 1623 2814.88 1628.5ZM2801.12 1601 2801.12 1598.25 2808 1605.12 2797 1605.12 2797 1591.37 2814.88 1591.37 2814.88 1601ZM2783.25 1605.12 2769.5 1605.12 2769.5 1591.37 2783.25 1591.37ZM2755.75 1605.12 2742 1605.12 2742 1591.37 2755.75 1591.37ZM2728.25 1605.12 2714.5 1605.12 2714.5 1591.37 2728.25 1591.37ZM2700.75 1605.12 2687 1605.12 2687 1591.37 2700.75 1591.37ZM2673.25 1605.12 2659.5 1605.12 2659.5 1591.37 2673.25 1591.37ZM2645.75 1605.12 2632 1605.12 2632 1591.37 2645.75 1591.37ZM2618.25 1605.12 2604.5 1605.12 2604.5 1591.37 2618.25 1591.37ZM2590.75 1605.12 2577 1605.12 2577 1591.37 2590.75 1591.37ZM2563.25 1605.12 2549.5 1605.12 2549.5 1591.37 2563.25 1591.37ZM2535.75 1605.12 2522 1605.12 2522 1591.37 2535.75 1591.37ZM2508.25 1605.12 2494.5 1605.12 2494.5 1591.37 2508.25 1591.37ZM2482.12 1590 2482.12 1576.25 2495.88 1576.25 2495.88 1590ZM2482.12 1562.5 2482.12 1548.75 2495.88 1548.75 2495.88 1562.5ZM2482.12 1535 2482.12 1521.25 2495.88 1521.25 2495.88 1535ZM2482.12 1507.5 2482.12 1493.75 2495.88 1493.75 2495.88 1507.5ZM2482.12 1480 2482.12 1466.25 2495.88 1466.25 2495.88 1480ZM2482.12 1452.5 2482.12 1438.75 2495.88 1438.75 2495.88 1452.5ZM2482.12 1425 2482.12 1411.25 2495.88 1411.25 2495.88 1425ZM2486.25 1407.12 2472.5 1407.12 2472.5 1393.37 2486.25 1393.37ZM2458.75 1407.12 2445 1407.12 2445 1393.37 2458.75 1393.37ZM2431.25 1407.12 2417.5 1407.12 2417.5 1393.37 2431.25 1393.37ZM2403.75 1407.12 2390 1407.12 2390 1393.37 2403.75 1393.37ZM2376.25 1407.12 2362.5 1407.12 2362.5 1393.37 2376.25 1393.37ZM2348.75 1407.12 2335 1407.12 2335 1393.37 2348.75 1393.37ZM2321.25 1407.12 2307.5 1407.12 2307.5 1393.37 2321.25 1393.37ZM2293.75 1407.12 2280 1407.12 2280 1393.37 2293.75 1393.37ZM2273.12 1386.5 2273.12 1372.75 2286.88 1372.75 2286.88 1386.5ZM2273.12 1359 2273.12 1345.25 2286.88 1345.25 2286.88 1359ZM2273.12 1331.5 2273.12 1317.75 2286.88 1317.75 2286.88 1331.5ZM2273.12 1304 2273.12 1290.25 2286.88 1290.25 2286.88 1304ZM2273.12 1276.5 2273.12 1262.75 2286.88 1262.75 2286.88 1276.5ZM2259.38 1257.25 2280 1216 2300.62 1257.25Z" fill="#FE7300"/></g></svg>